DataType=double
version=3
OpenSimVersion=4.5
endheader
time	ground_force_2_vx	ground_force_2_vy	ground_force_2_vz	ground_force_2_px	ground_force_2_py	ground_force_2_pz	ground_moment_2_mx	ground_moment_2_my	ground_moment_2_mz	ground_force_1_vx	ground_force_1_vy	ground_force_1_vz	ground_force_1_px	ground_force_1_py	ground_force_1_pz	ground_moment_1_mx	ground_moment_1_my	ground_moment_1_mz
2.495	-54.5926974304686	609.2462639799306	-46.11785868032632	0.8383905271172829	0.01038340430110678	0.5715749471457249	5.009377503003092	0.2989676920834253	14.13875144686609	0.2345991008786134	-1.437935897731734	0.1111921086352972	0.6769925620887376	0.01038340430110678	0.4198165913655811	0.01426712838120459	-0.0001721767071406477	0.08994664225194807
2.5	-51.98558598410575	601.4849854998024	-45.01927258164467	0.8324996107420902	0.01038340430110678	0.571465676231254	4.980232485083018	0.5566359508160706	15.7392079011747	0.2973050292581124	-1.069005596962995	0.1019303735878268	0.6878160734174199	0.01038340430110678	0.4196896228791743	0.007450527570020515	0.001242773765813943	0.09193403421297681
2.505	-49.46840580323813	594.8343171627974	-43.86629390336125	0.8266225363584576	0.01038340430110678	0.5713518577742862	4.963875332669136	0.8018226996491815	17.19374973984281	0.3393828810324988	-0.7583116199410824	0.09117287995340462	0.6987878100336229	0.01038340430110678	0.4194870940340243	0.001866616079247319	0.00223524734655578	0.09163265252538576
2.51	-47.04756551230863	589.2956414666239	-42.67494026054671	0.820759241249283	0.01038340430110678	0.5712337746452687	4.959347306621376	1.03423131141819	18.51171066185746	0.3636672114666223	-0.4982192171069642	0.07955948709445693	0.7099040461678502	0.01038340430110678	0.4192057012133917	-0.002678526665001346	0.002849216669121191	0.08933817024617853
2.515	-44.72696790268844	584.8557477087613	-41.46236360001112	0.8149094504455245	0.01038340430110678	0.5711118502088534	4.965740133102806	1.253692296244085	19.70298962227364	0.3728239021518698	-0.2809548820355872	0.06761590318732047	0.7211615826995013	0.01038340430110678	0.4188425646600658	-0.00637314959377866	0.003128975839001957	0.08532407938243229
2.52	-42.5074665236327	581.4889413677273	-40.24591819664138	0.80907270270098	0.01038340430110678	0.5709866465750089	4.982189552368054	1.460103254916743	20.77767350373972	0.3693139242918859	-0.09893159331454626	0.05576707189822372	0.7325574509722588	0.01038340430110678	0.4183953408430451	-0.009393911351509132	0.003118209701150065	0.07984275133858969
2.525	-40.38649845239336	579.1588933483762	-39.04221452097153	0.8032483801902779	0.01038340430110678	0.5708588581891153	5.007855234119128	1.653383090597655	21.74574422783468	0.3553750801280987	0.05498577828780071	0.04435090593829472	0.7440885954194505	0.01038340430110678	0.4178623264096719	-0.01190112607057747	0.002859451910660393	0.07312817023987805
2.53	-38.35795216428202	577.820224686722	-37.86627777333768	0.7974357409948449	0.01038340430110678	0.5707293008389214	5.041893224115794	1.83344375642399	22.61686355517594	0.33301850481165	0.187265659769821	0.03363186634276971	0.7557515422746444	0.01038340430110678	0.4172425520787393	-0.01403494884966605	0.002393882646068435	0.06540001188228022
2.535	-36.41229060571577	577.4198494226328	-36.73090705520985	0.7916339533799379	0.01038340430110678	0.5705988963842055	5.083426087839912	2.00018060551076	23.40022591365157	0.3040370143593577	0.3035367786461052	0.02381401735897981	0.76754206208989	0.01038340430110678	0.416535865204602	-0.0159122953507671	0.001761420406818925	0.05686877140804243
2.54	-34.53692040424134	577.8981273321833	-35.64629524634542	0.7858421308401061	0.01038340430110678	0.57046865371406	5.131514582812579	2.153480340628668	24.10446809480855	0.2700227145279824	0.408448862711225	0.01505328830764441	0.7794548341357879	0.01038340430110678	0.4157430000016042	-0.01762431420606747	0.001001064801573803	0.04774167401213672
2.545	-32.71677494999276	579.189898130042	-34.61993039200529	0.7800593669004556	0.01038340430110678	0.5703396465974461	5.18513364863901	2.293243767190333	24.73762421362241	0.2323916157617384	0.5055597819250579	0.007468749856528234	0.7914831210039773	0.01038340430110678	0.4148656345612829	-0.01923425941344492	0.0001514486330544962	0.03822913005272942
2.55	-30.93505759948373	581.2254704126856	-33.65676216860355	0.7742847687054869	0.01038340430110678	0.5702129892094063	5.243154954152152	2.419419118748686	25.30711502890435	0.1924133120971483	0.5972429089551383	0.001152766886416856	0.8036184618588181	0.01038340430110678	0.4139064338347143	-0.0207756419467362	-0.0007484420397819713	0.02855151532984676
2.555	-29.17407326603986	583.9316244467851	-32.75958572530398	0.7685174885036218	0.01038340430110678	0.5700898101864338	5.304338022689349	2.532040733322003	25.81976227052712	0.1512440647565875	0.6846096522961602	-0.00382007462362921	0.8158503927711244	0.01038340430110678	0.4128690777146499	-0.02225057487430426	-0.001658421996037496	0.01894606735852076
2.56	-27.41606616309497	587.2326672613481	-31.92957331770967	0.7627567522403131	0.01038340430110678	0.5699712260919619	5.367331739088177	2.631267388176473	26.28182035908454	0.1099618739670533	0.7674434238567187	-0.007385351742339452	0.828166202388779	0.01038340430110678	0.4117582732728584	-0.02362826395188256	-0.002536179406748773	0.009673688483956071
2.565	-25.64398145145701	591.0515591169155	-31.16687310259009	0.7570018846013025	0.01038340430110678	0.5698583151615988	5.430687586110352	2.7174147391898	26.69901929870849	0.06960228924859907	0.844142828518784	-0.009482579757168708	0.840550730831613	0.01038340430110678	0.4105797501307788	-0.02484363623911934	-0.003336315090193387	0.001025442249882911
2.57	-23.84207937598404	595.3111143477763	-30.47119359180319	0.7512523299948429	0.01038340430110678	0.5697520921543007	5.492885225027155	2.790977096951119	27.07661343085036	0.03119338279929806	0.9116750041696946	-0.0100504217020827	0.8529862191175204	0.01038340430110678	0.4093402379126475	-0.02579615186220474	-0.00400940780875636	-0.006671386711927879
2.575	-21.99634892760419	599.9352646476655	-29.84230337151973	0.7455076691216194	0.01038340430110678	0.5696534850677518	5.552370100677361	2.852635180522844	27.41943131668062	-0.004215160471975898	0.9655538483831378	-0.009023040850060227	0.8654522156143262	0.01038340430110678	0.4080474247941385	-0.02634900235216842	-0.004501228272172253	-0.01304701786571591
2.58	-20.09469027514529	604.8503561863708	-29.28039986838677	0.739767630947287	0.01038340430110678	0.5695633143914276	5.607601685315662	2.903248304388037	27.73192252008805	-0.03554803009422614	0.999908054314858	-0.006325968427503881	0.8779255449557404	0.01038340430110678	0.4067098963532192	-0.02633002678279395	-0.004752631212246006	-0.01767914781630378
2.585	-18.12686381525804	609.9864329319496	-28.78632764712241	0.7340321000584231	0.01038340430110678	0.5694822754762136	5.65710984798356	2.943831286791589	28.01819771110773	-0.0617715762581289	1.007797903191715	-0.001867509434973158	0.8903803435583304	0.01038340430110678	0.4053370542775345	-0.02553985460054475	-0.004701986621887921	-0.02007120524341439
2.59	-16.08424225181147	615.278441809733	-28.36164440297189	0.7283011195418965	0.01038340430110678	0.5694109245010965	5.699555875378516	2.975517994752201	28.2820594511195	-0.08206477150611691	0.9818939734752803	0.004476511568576313	0.9027881643408813	0.01038340430110678	0.4039390149911454	-0.02377444085442981	-0.004292356542443421	-0.01961491523896204
2.595	-13.95943501073282	620.6672891864101	-28.00854197643454	0.7225748896743406	0.01038340430110678	0.5693496684200707	5.733794268571891	2.999514567611922	28.52702223751741	-0.09600428666291705	0.9152160128585933	0.01287560076738714	0.9151181515029874	0.01038340430110678	0.4025264889197646	-0.0208544339658765	-0.003480714168083821	-0.01555514797308935
2.6	-11.74586321971292	626.1006858614205	-27.72963685658311	0.7168537628373438	0.01038340430110678	0.5692987591790361	5.758931741751722	3.017045780732742	28.75632160718302	-0.1035803867040629	0.8013119096742685	0.02353862508326188	0.9273372843066376	0.01038340430110678	0.4011106418839063	-0.01663661092267521	-0.002241114996353599	-0.00699045930815409
